<mxfile host="65bd71144e">
    <diagram id="mmvRK7XDktGUdihHhVJ2" name="Página-1">
        <mxGraphModel dx="564" dy="478" grid="1" gridSize="10" guides="1" tooltips="1" connect="1" arrows="1" fold="1" page="1" pageScale="1" pageWidth="827" pageHeight="1169" background="none" math="0" shadow="0">
            <root>
                <mxCell id="0"/>
                <mxCell id="1" parent="0"/>
                <mxCell id="7RaeurX_kNJf9f4ugCMJ-2" value="" style="whiteSpace=wrap;html=1;aspect=fixed;" parent="1" vertex="1">
                    <mxGeometry x="40" y="40" width="220" height="220" as="geometry"/>
                </mxCell>
                <mxCell id="7RaeurX_kNJf9f4ugCMJ-3" value="" style="whiteSpace=wrap;html=1;aspect=fixed;strokeWidth=1;" parent="1" vertex="1">
                    <mxGeometry x="510" y="80" width="170" height="170" as="geometry"/>
                </mxCell>
                <mxCell id="7RaeurX_kNJf9f4ugCMJ-7" value="PRODUCTOS" style="swimlane;fontStyle=4;childLayout=stackLayout;horizontal=1;startSize=30;horizontalStack=0;resizeParent=1;resizeParentMax=0;resizeLast=0;collapsible=1;marginBottom=0;fillColor=#e1d5e7;strokeColor=#9673a6;" parent="1" vertex="1">
                    <mxGeometry x="40" y="40" width="220" height="90" as="geometry"/>
                </mxCell>
                <mxCell id="7RaeurX_kNJf9f4ugCMJ-8" value="id INT" style="text;strokeColor=none;fillColor=none;align=left;verticalAlign=middle;spacingLeft=4;spacingRight=4;overflow=hidden;points=[[0,0.5],[1,0.5]];portConstraint=eastwest;rotatable=0;" parent="7RaeurX_kNJf9f4ugCMJ-7" vertex="1">
                    <mxGeometry y="30" width="220" height="30" as="geometry"/>
                </mxCell>
                <mxCell id="7RaeurX_kNJf9f4ugCMJ-10" value="name VARCHAR" style="text;strokeColor=none;fillColor=none;align=left;verticalAlign=middle;spacingLeft=4;spacingRight=4;overflow=hidden;points=[[0,0.5],[1,0.5]];portConstraint=eastwest;rotatable=0;" parent="7RaeurX_kNJf9f4ugCMJ-7" vertex="1">
                    <mxGeometry y="60" width="220" height="30" as="geometry"/>
                </mxCell>
                <mxCell id="7RaeurX_kNJf9f4ugCMJ-11" value="descriptionVARCHAR" style="text;strokeColor=none;fillColor=none;align=left;verticalAlign=middle;spacingLeft=4;spacingRight=4;overflow=hidden;points=[[0,0.5],[1,0.5]];portConstraint=eastwest;rotatable=0;" parent="1" vertex="1">
                    <mxGeometry x="40" y="130" width="190" height="30" as="geometry"/>
                </mxCell>
                <mxCell id="7RaeurX_kNJf9f4ugCMJ-12" value="image VARCHAR" style="text;strokeColor=none;fillColor=none;align=left;verticalAlign=middle;spacingLeft=4;spacingRight=4;overflow=hidden;points=[[0,0.5],[1,0.5]];portConstraint=eastwest;rotatable=0;" parent="1" vertex="1">
                    <mxGeometry x="40" y="190" width="190" height="30" as="geometry"/>
                </mxCell>
                <mxCell id="7RaeurX_kNJf9f4ugCMJ-13" value="price FLOAT" style="text;strokeColor=none;fillColor=none;align=left;verticalAlign=middle;spacingLeft=4;spacingRight=4;overflow=hidden;points=[[0,0.5],[1,0.5]];portConstraint=eastwest;rotatable=0;" parent="1" vertex="1">
                    <mxGeometry x="40" y="160" width="190" height="30" as="geometry"/>
                </mxCell>
                <mxCell id="7RaeurX_kNJf9f4ugCMJ-14" value="category_id INT    " style="text;strokeColor=none;fillColor=none;align=left;verticalAlign=middle;spacingLeft=4;spacingRight=4;overflow=hidden;points=[[0,0.5],[1,0.5]];portConstraint=eastwest;rotatable=0;" parent="1" vertex="1">
                    <mxGeometry x="40" y="220" width="190" height="30" as="geometry"/>
                </mxCell>
                <mxCell id="7RaeurX_kNJf9f4ugCMJ-19" value="" style="whiteSpace=wrap;html=1;aspect=fixed;" parent="1" vertex="1">
                    <mxGeometry x="40" y="310" width="240" height="240" as="geometry"/>
                </mxCell>
                <mxCell id="7RaeurX_kNJf9f4ugCMJ-20" value="USUARIOS" style="swimlane;fontStyle=4;childLayout=stackLayout;horizontal=1;startSize=30;horizontalStack=0;resizeParent=1;resizeParentMax=0;resizeLast=0;collapsible=1;marginBottom=0;fillColor=#e1d5e7;strokeColor=#9673a6;" parent="1" vertex="1">
                    <mxGeometry x="40" y="310" width="240" height="120" as="geometry"/>
                </mxCell>
                <mxCell id="7RaeurX_kNJf9f4ugCMJ-21" value="id INT" style="text;strokeColor=none;fillColor=none;align=left;verticalAlign=middle;spacingLeft=4;spacingRight=4;overflow=hidden;points=[[0,0.5],[1,0.5]];portConstraint=eastwest;rotatable=0;" parent="7RaeurX_kNJf9f4ugCMJ-20" vertex="1">
                    <mxGeometry y="30" width="240" height="30" as="geometry"/>
                </mxCell>
                <mxCell id="7RaeurX_kNJf9f4ugCMJ-22" value="firstName VARCHAR" style="text;strokeColor=none;fillColor=none;align=left;verticalAlign=middle;spacingLeft=4;spacingRight=4;overflow=hidden;points=[[0,0.5],[1,0.5]];portConstraint=eastwest;rotatable=0;" parent="7RaeurX_kNJf9f4ugCMJ-20" vertex="1">
                    <mxGeometry y="60" width="240" height="30" as="geometry"/>
                </mxCell>
                <mxCell id="7RaeurX_kNJf9f4ugCMJ-23" value="lastName VARCHAR" style="text;strokeColor=none;fillColor=none;align=left;verticalAlign=middle;spacingLeft=4;spacingRight=4;overflow=hidden;points=[[0,0.5],[1,0.5]];portConstraint=eastwest;rotatable=0;" parent="7RaeurX_kNJf9f4ugCMJ-20" vertex="1">
                    <mxGeometry y="90" width="240" height="30" as="geometry"/>
                </mxCell>
                <mxCell id="7RaeurX_kNJf9f4ugCMJ-24" value="email VARCHAR" style="text;strokeColor=none;fillColor=none;align=left;verticalAlign=middle;spacingLeft=4;spacingRight=4;overflow=hidden;points=[[0,0.5],[1,0.5]];portConstraint=eastwest;rotatable=0;" parent="1" vertex="1">
                    <mxGeometry x="40" y="430" width="190" height="30" as="geometry"/>
                </mxCell>
                <mxCell id="7RaeurX_kNJf9f4ugCMJ-25" value="password VARCHAR" style="text;strokeColor=none;fillColor=none;align=left;verticalAlign=middle;spacingLeft=4;spacingRight=4;overflow=hidden;points=[[0,0.5],[1,0.5]];portConstraint=eastwest;rotatable=0;" parent="1" vertex="1">
                    <mxGeometry x="40" y="460" width="190" height="30" as="geometry"/>
                </mxCell>
                <mxCell id="7RaeurX_kNJf9f4ugCMJ-27" value="category_id INT" style="text;strokeColor=none;fillColor=none;align=left;verticalAlign=middle;spacingLeft=4;spacingRight=4;overflow=hidden;points=[[0,0.5],[1,0.5]];portConstraint=eastwest;rotatable=0;" parent="1" vertex="1">
                    <mxGeometry x="40" y="490" width="190" height="30" as="geometry"/>
                </mxCell>
                <mxCell id="7RaeurX_kNJf9f4ugCMJ-28" value="CATEGORIA" style="swimlane;fontStyle=4;childLayout=stackLayout;horizontal=1;startSize=30;horizontalStack=0;resizeParent=1;resizeParentMax=0;resizeLast=0;collapsible=1;marginBottom=0;fillColor=#e1d5e7;strokeColor=#9673a6;" parent="1" vertex="1">
                    <mxGeometry x="510" y="80" width="170" height="60" as="geometry"/>
                </mxCell>
                <mxCell id="7RaeurX_kNJf9f4ugCMJ-30" value="name VARCHAR" style="text;strokeColor=none;fillColor=none;align=left;verticalAlign=middle;spacingLeft=4;spacingRight=4;overflow=hidden;points=[[0,0.5],[1,0.5]];portConstraint=eastwest;rotatable=0;" parent="7RaeurX_kNJf9f4ugCMJ-28" vertex="1">
                    <mxGeometry y="30" width="170" height="30" as="geometry"/>
                </mxCell>
                <mxCell id="7RaeurX_kNJf9f4ugCMJ-32" value="" style="endArrow=none;html=1;rounded=0;exitX=1;exitY=0.904;exitDx=0;exitDy=0;exitPerimeter=0;entryX=-0.011;entryY=1.067;entryDx=0;entryDy=0;entryPerimeter=0;" parent="1" source="7RaeurX_kNJf9f4ugCMJ-2" target="7RaeurX_kNJf9f4ugCMJ-29" edge="1">
                    <mxGeometry width="50" height="50" relative="1" as="geometry">
                        <mxPoint x="390" y="310" as="sourcePoint"/>
                        <mxPoint x="470" y="170" as="targetPoint"/>
                        <Array as="points">
                            <mxPoint x="400" y="162"/>
                        </Array>
                    </mxGeometry>
                </mxCell>
                <mxCell id="7RaeurX_kNJf9f4ugCMJ-29" value="id INT" style="text;strokeColor=none;fillColor=none;align=left;verticalAlign=middle;spacingLeft=4;spacingRight=4;overflow=hidden;points=[[0,0.5],[1,0.5]];portConstraint=eastwest;rotatable=0;" parent="1" vertex="1">
                    <mxGeometry x="510" y="140" width="190" height="30" as="geometry"/>
                </mxCell>
                <mxCell id="7RaeurX_kNJf9f4ugCMJ-38" value="" style="endArrow=none;html=1;rounded=0;exitX=1;exitY=0.619;exitDx=0;exitDy=0;exitPerimeter=0;entryX=-0.005;entryY=0.767;entryDx=0;entryDy=0;entryPerimeter=0;" parent="1" source="7RaeurX_kNJf9f4ugCMJ-19" edge="1">
                    <mxGeometry width="50" height="50" relative="1" as="geometry">
                        <mxPoint x="290" y="266.96000000000004" as="sourcePoint"/>
                        <mxPoint x="499.04999999999995" y="403.01" as="targetPoint"/>
                        <Array as="points">
                            <mxPoint x="370" y="440"/>
                        </Array>
                    </mxGeometry>
                </mxCell>
                <mxCell id="7RaeurX_kNJf9f4ugCMJ-43" value="" style="whiteSpace=wrap;html=1;aspect=fixed;strokeWidth=1;" parent="1" vertex="1">
                    <mxGeometry x="500" y="330" width="170" height="170" as="geometry"/>
                </mxCell>
                <mxCell id="7RaeurX_kNJf9f4ugCMJ-44" value="PERFIL" style="swimlane;fontStyle=4;childLayout=stackLayout;horizontal=1;startSize=30;horizontalStack=0;resizeParent=1;resizeParentMax=0;resizeLast=0;collapsible=1;marginBottom=0;fillColor=#e1d5e7;strokeColor=#9673a6;" parent="1" vertex="1">
                    <mxGeometry x="500" y="330" width="170" height="60" as="geometry"/>
                </mxCell>
                <mxCell id="7RaeurX_kNJf9f4ugCMJ-45" value="name VARCHAR" style="text;strokeColor=none;fillColor=none;align=left;verticalAlign=middle;spacingLeft=4;spacingRight=4;overflow=hidden;points=[[0,0.5],[1,0.5]];portConstraint=eastwest;rotatable=0;" parent="7RaeurX_kNJf9f4ugCMJ-44" vertex="1">
                    <mxGeometry y="30" width="170" height="30" as="geometry"/>
                </mxCell>
                <mxCell id="7RaeurX_kNJf9f4ugCMJ-46" value="id INT" style="text;strokeColor=none;fillColor=none;align=left;verticalAlign=middle;spacingLeft=4;spacingRight=4;overflow=hidden;points=[[0,0.5],[1,0.5]];portConstraint=eastwest;rotatable=0;" parent="1" vertex="1">
                    <mxGeometry x="500" y="390" width="190" height="30" as="geometry"/>
                </mxCell>
                <mxCell id="eSY13SN-EbNp5rnfLDi7-2" value="image VARCHAR" style="text;strokeColor=none;fillColor=none;align=left;verticalAlign=middle;spacingLeft=4;spacingRight=4;overflow=hidden;points=[[0,0.5],[1,0.5]];portConstraint=eastwest;rotatable=0;" parent="1" vertex="1">
                    <mxGeometry x="40" y="520" width="190" height="30" as="geometry"/>
                </mxCell>
            </root>
        </mxGraphModel>
    </diagram>
</mxfile>